HIERARCHY
ROOT Hips
{
  OFFSET 1.71198 84.972 -1.13098
  CHANNELS 6 Xposition Yposition Zposition Zrotation Xrotation Yrotation
  JOINT Spine
  {
    OFFSET -0.000355721 21.3001 -0.016921
    CHANNELS 3 Zrotation Xrotation Yrotation
    JOINT LeftArm
    {
      OFFSET 13.5181 21.3012 0
      CHANNELS 3 Zrotation Xrotation Yrotation
      JOINT LeftForeArm
      {
        OFFSET 24.5783 0 0
        CHANNELS 3 Zrotation Xrotation Yrotation
        JOINT LeftHand
        {
          OFFSET 24.5783 0 0
          CHANNELS 3 Zrotation Xrotation Yrotation
          End Site
          {
            OFFSET 7.32568 1.52588e-05 0.0169305
          }
        }
      }
    }
    JOINT Head
    {
      OFFSET 0 27.4458 -0.00489235
      CHANNELS 3 Zrotation Xrotation Yrotation
      End Site
      {
        OFFSET 0 0 0
      }
    }
    JOINT RightArm
    {
      OFFSET -13.5174 21.3012 0
      CHANNELS 3 Zrotation Xrotation Yrotation
      JOINT RightForeArm
      {
        OFFSET -24.5783 0 0
        CHANNELS 3 Zrotation Xrotation Yrotation
        JOINT RightHand
        {
          OFFSET -24.5783 0 0
          CHANNELS 3 Zrotation Xrotation Yrotation
          End Site
          {
            OFFSET -7.32568 1.52588e-05 0.0169305
          }
        }
      }
    }
  }
  JOINT RightUpLeg
  {
    OFFSET -8.44614 -9.41038 0.835684
    CHANNELS 3 Zrotation Xrotation Yrotation
    JOINT RightLeg
    {
      OFFSET 0 -40.9639 0
      CHANNELS 3 Zrotation Xrotation Yrotation
      JOINT RightFoot
      {
        OFFSET 0 -40.9639 0
        CHANNELS 3 Zrotation Xrotation Yrotation
        End Site
        {
          OFFSET 0.50614 -9.67405 14.6709
        }
      }
    }
  }
  JOINT LeftUpLeg
  {
    OFFSET 8.44614 -9.41038 0.835684
    CHANNELS 3 Zrotation Xrotation Yrotation
    JOINT LeftLeg
    {
      OFFSET 0 -40.9639 0
      CHANNELS 3 Zrotation Xrotation Yrotation
      JOINT LeftFoot
      {
        OFFSET 0 -40.9639 0
        CHANNELS 3 Zrotation Xrotation Yrotation
        End Site
        {
          OFFSET -0.50614 -9.67405 14.6709
        }
      }
    }
  }
}
MOTION
Frames:	14
Frame Time:	0.0333333
1.7119 84.972 -1.13102 4.80684 0.589186 -62.0602 -4.44244 15.047 0.845245 -56.3681 -37.1587 7.15813 0.267971 0.114234 -46.8082 0.369331 -10.3179 -0.0651605 0.444332 -9.73332 58.1145 56.7665 11.0572 -18.5306 14.7223 -11.6447 40.5992 -20.1486 -29.1419 0.816714 -30.1993 -16.5048 -32.8666 -5.62737 37.9122 6.86705 26.0695 -43.4274 8.12218 25.1975 -27.6981 26.0377 1.65175 38.8778 -7.87276 -18.1807 -38.784 -5.79159 
0.807411 85.2528 -1.37702 2.66092 -3.04101 -61.6852 -2.99388 13.019 0.629991 -57.8407 -37.8801 6.42142 0.244421 0.178645 -43.6463 0.838016 -10.1463 1.76343 -1.59063 -5.25883 56.6683 54.7847 9.16271 -17.9915 14.235 -12.1989 38.0556 -15.5702 -25.5932 -0.737671 -32.0738 -11.9914 -32.1515 -5.4663 37.7432 7.93812 26.1707 -44.2952 8.45127 21.9534 -22.2482 24.7819 1.36341 36.2404 -8.77222 -18.1224 -38.3406 -5.67842 
-0.105428 85.5356 -1.57504 0.505204 -6.59391 -61.2344 -1.52419 10.7806 0.509188 -58.7811 -38.2027 6.42894 0.22212 0.213706 -41.5715 1.81504 -9.43837 6.25079 1.63882 -10.6297 54.368 53.1434 8.01666 -18.5845 13.2141 -13.1714 33.984 -11.9589 -23.7186 -3.29279 -33.8104 -7.21445 -31.1928 -5.25528 37.0869 8.62877 26.3747 -44.9496 8.71096 19.0581 -16.5887 23.9476 1.03561 33.1598 -9.94747 -17.9652 -37.6319 -5.49442 
-1.02034 85.7998 -1.73663 -1.66049 -10.1787 -60.8478 -0.0524785 8.49337 0.403056 -59.4201 -38.1352 7.09584 0.214255 0.229279 -40.6626 2.33866 -7.32696 11.3618 11.4333 -24.5526 53.4482 52.885 8.2688 -20.1883 11.6981 -14.3354 28.988 -9.08395 -27.2099 -6.04083 -35.5811 -2.24614 -30.0137 -4.99972 36.0368 9.08988 26.6373 -45.4157 8.90708 16.2854 -10.6395 23.4618 0.824743 29.564 -9.8282 -18.9153 -36.1738 -7.0146 
-1.92924 86.0519 -1.77278 -3.83813 -13.2427 -60.6399 1.42406 6.3202 0.0223927 -59.4475 -38.2652 8.7323 0.212733 0.230276 -40.4842 2.39585 -5.56839 15.7792 25.4957 -39.7984 58.4284 52.3771 7.73717 -20.8838 10.8115 -14.9168 26.0787 -6.60696 -30.4049 -8.99156 -36.8633 2.6809 -28.8537 -4.79917 34.3752 8.20515 28.0265 -44.9956 10.5622 14.2015 -4.80355 23.2674 0.528667 25.8355 -10.6015 -19.2039 -34.9424 -7.36293 
-2.92567 86.3051 -2.48906 -4.87367 -14.0492 -61.7922 5.78923 5.53948 -2.2655 -57.776 -40.2617 15.9407 0.215597 0.210929 -41.308 -2.08337 -9.35957 13.8776 34.7874 -47.8504 64.085 45.6065 6.45334 -12.0695 10.9074 -14.8694 26.344 -3.82512 -29.8652 -11.4164 -36.9985 3.88745 -29.3989 -4.75943 34.4367 8.56078 28.5075 -45.0611 12.7933 13.746 -0.583061 22.6975 0.114375 21.0842 -10.9263 -19.2173 -33.5352 -5.20299 
-3.01732 86.293 -3.53729 -5.43362 -13.9761 -63.524 7.70927 6.50978 -3.16763 -57.0094 -41.2227 18.2333 0.219766 0.183626 -42.4874 -4.86137 -11.9435 10.8487 37.0316 -47.6152 65.1173 41.9778 4.36197 -6.81366 11.5833 -14.4308 28.5509 -0.798257 -28.1751 -10.3372 -37.0264 2.34003 -29.9014 -4.95687 36.4226 9.98026 27.7934 -45.7978 13.8339 13.8908 1.37838 22.2752 0.106553 18.1301 -9.77383 -19.756 -32.152 -3.96692 
-2.62158 86.013 -4.62232 -5.5731 -13.4238 -65.2678 7.807 8.17259 -3.10746 -56.1957 -41.0779 18.1555 0.223919 0.150322 -43.9313 -5.91315 -13.1733 8.56233 34.6204 -43.3461 63.4076 40.3941 3.09068 -5.39118 12.6742 -13.6349 32.1223 0.969339 -25.5448 -7.26464 -36.9701 -0.638136 -30.2451 -5.36929 39.4477 11.5474 26.7065 -46.8584 14.2927 14.7105 1.16421 22.2863 0.305203 17.9902 -8.24948 -20.5103 -31.5586 -3.74939 
-2.04638 85.7153 -5.44811 -5.38046 -12.7908 -66.4762 7.70452 9.00653 -3.05618 -55.7471 -41.0396 18.0519 0.228327 0.115079 -45.4757 -6.34274 -13.7753 7.78308 30.0468 -37.5969 60.2197 39.8894 1.82521 -4.95119 13.8359 -12.6108 36.4932 1.15901 -23.6167 -5.76568 -36.8771 -3.4384 -30.6499 -5.75308 41.8761 12.6587 25.7389 -47.5255 14.4467 15.5848 -0.0420581 22.2945 0.457556 18.9877 -7.05823 -20.992 -31.4432 -3.68303 
-1.48823 85.513 -5.67963 -4.43159 -11.8811 -66.6605 7.31836 10.1076 -2.8563 -55.0937 -41.1619 17.1073 0.231837 0.0796753 -47.0113 -7.16597 -14.711 6.37305 23.6741 -30.5609 56.3278 38.9367 0.397183 -4.95498 14.797 -11.5548 41.334 1.55887 -22.2752 -2.44032 -36.5891 -5.84139 -31.0082 -6.02086 43.0681 12.7011 25.3909 -47.6325 14.2581 16.4225 -2.68499 22.51 0.606113 21.1479 -6.64205 -21.0539 -31.9913 -3.8325 
-0.965876 85.3125 -5.65623 -3.38555 -10.8723 -66.5055 6.88259 10.7705 -2.6513 -55.1385 -41.1399 15.8932 0.234111 0.0469789 -48.4199 -7.77235 -15.2143 5.47978 16.4251 -23.4974 53.3152 38.6705 -0.838039 -6.11093 15.6712 -10.4143 46.2372 0.877967 -22.2796 0.0866175 -36.2625 -7.91192 -31.3711 -6.23437 43.8339 12.4706 25.3008 -47.5754 13.9977 17.3191 -5.6779 22.7254 0.757832 23.7444 -6.47437 -20.9945 -32.8299 -4.06945 
-0.527519 85.1301 -5.45996 -2.48826 -9.90026 -66.2543 6.4509 11.3542 -2.39138 -55.4613 -40.979 14.4578 0.235257 0.0194087 -49.5931 -7.7804 -15.3548 4.72628 9.30569 -17.3309 51.791 38.7518 -2.18262 -7.35961 16.417 -9.26812 50.8362 -0.114815 -22.3122 2.34661 -35.9412 -9.50429 -31.6703 -6.37287 44.2481 12.1939 25.3308 -47.4353 13.6928 18.1654 -8.41289 22.9442 0.92146 26.2447 -6.45273 -20.8891 -33.7414 -4.32771 
-0.0658923 84.9974 -5.07526 -1.63482 -8.93222 -65.9843 5.52925 12.0386 -1.95473 -56.0218 -40.7458 12.5485 0.236284 0.000183833 -50.422 -6.508 -15.0975 3.86675 3.11739 -12.9625 51.7019 39.1508 -4.15671 -9.35593 16.9973 -8.21942 54.8201 -1.07418 -22.2386 4.72037 -35.6487 -10.8086 -31.9171 -6.40691 44.2173 11.8906 25.3745 -47.0889 13.221 18.8836 -11.0197 23.1974 1.09318 28.6144 -6.45171 -20.6811 -34.6659 -4.5951 
0.396668 84.9573 -4.62576 -0.816879 -7.97968 -65.6717 5.06636 12.3395 -1.71983 -56.3299 -40.5368 11.6728 0.237529 -0.0053232 -50.8039 -5.38438 -14.8772 3.48723 -1.56298 -11.3453 52.2309 39.6534 -4.86304 -10.2618 17.3921 -7.3969 57.8311 -2.52187 -22.2207 5.5903 -35.2972 -11.8292 -32.1471 -6.3591 43.7402 11.3718 25.5187 -46.4898 12.8135 19.4384 -13.3228 23.413 1.23085 30.4062 -6.40419 -20.3913 -35.3365 -4.79613 
